<?xml version="1.0" encoding="UTF-8" standalone="no"?>
<!-- Created with Inkscape (http://www.inkscape.org/) -->

<svg
   width="210mm"
   height="297mm"
   viewBox="0 0 210 297"
   version="1.1"
   id="svg1"
   xml:space="preserve"
   inkscape:version="1.4 (86a8ad7, 2024-10-11)"
   sodipodi:docname="chess_pieces.svg"
   xmlns:inkscape="http://www.inkscape.org/namespaces/inkscape"
   xmlns:sodipodi="http://sodipodi.sourceforge.net/DTD/sodipodi-0.dtd"
   xmlns="http://www.w3.org/2000/svg"
   xmlns:svg="http://www.w3.org/2000/svg"><sodipodi:namedview
     id="namedview1"
     pagecolor="#ffffff"
     bordercolor="#000000"
     borderopacity="0.25"
     inkscape:showpageshadow="2"
     inkscape:pageopacity="0.0"
     inkscape:pagecheckerboard="0"
     inkscape:deskcolor="#d1d1d1"
     inkscape:document-units="mm"
     showgrid="true"
     inkscape:zoom="1"
     inkscape:cx="330.5"
     inkscape:cy="546.5"
     inkscape:window-width="1920"
     inkscape:window-height="991"
     inkscape:window-x="-9"
     inkscape:window-y="-9"
     inkscape:window-maximized="1"
     inkscape:current-layer="layer1"><inkscape:grid
       id="grid1"
       units="mm"
       originx="0"
       originy="0"
       spacingx="0.99999998"
       spacingy="1"
       empcolor="#0099e5"
       empopacity="0.30196078"
       color="#0099e5"
       opacity="0.14901961"
       empspacing="5"
       enabled="true"
       visible="true" /></sodipodi:namedview><defs
     id="defs1" /><g
     inkscape:label="Livello 1"
     inkscape:groupmode="layer"
     id="layer1"><path
       id="path1"
       style="fill:#000000;stroke-width:0.264583;stroke-linecap:round;stroke-linejoin:round;stroke-miterlimit:8"
       d="m 67.496259,94.648104 a 3.5,3.5318749 0 0 0 -3.500044,3.531568 3.5,3.5318749 0 0 0 1.145666,2.606568 l -1.363741,0.65165 c 0,0 -0.04798,0.85518 0.456303,1.29656 h 3.626135 2.779675 c 0.504288,-0.44138 0.456303,-1.29656 0.456303,-1.29656 l -1.283642,-0.61341 a 3.5,3.5318749 0 0 0 1.18339,-2.644808 3.5,3.5318749 0 0 0 -3.500045,-3.531568 z m -2.123901,9.120386 c 0,0 0.05361,1.22389 -2.083594,2.4846 -2.137209,1.26071 -1.885156,3.98632 -1.885156,3.98632 h 5.563485 0.992187 5.564002 c 0,0 0.252052,-2.72561 -1.885157,-3.98632 -2.137208,-1.2607 -2.083593,-2.4846 -2.083593,-2.4846 h -1.591118 -0.999939 z"
       inkscape:export-filename="pawn.png"
       inkscape:export-xdpi="1000"
       inkscape:export-ydpi="1000" /><rect
       style="fill:none;stroke:#000000;stroke-width:0.264583;stroke-linecap:round;stroke-linejoin:round;stroke-miterlimit:8;stroke-opacity:1"
       id="rect2"
       width="25.000002"
       height="24.999996"
       x="55"
       y="90" /><rect
       style="fill:none;stroke:#000000;stroke-width:0.264583;stroke-linecap:round;stroke-linejoin:round;stroke-miterlimit:8;stroke-opacity:1"
       id="rect2-4"
       width="25.000002"
       height="24.999996"
       x="85"
       y="90" /><rect
       style="fill:none;stroke:#000000;stroke-width:0.264583;stroke-linecap:round;stroke-linejoin:round;stroke-miterlimit:8;stroke-opacity:1"
       id="rect2-4-1"
       width="25.000002"
       height="24.999996"
       x="115"
       y="90" /><path
       id="path2"
       style="fill:#000000;fill-opacity:1;stroke:#000000;stroke-width:0.264583;stroke-linecap:round;stroke-linejoin:round;stroke-miterlimit:8;stroke-opacity:1"
       d="m 96.914827,92.912878 v 1.49965 h -1.850961 v 0.941544 h 1.850961 v 1.703255 l 0.649149,0.855245 0.649149,-0.855245 v -1.703255 h 1.850965 v -0.941544 h -1.850965 v -1.49965 z m -4.350551,4.686535 c -4.088496,0 -4.000268,3.540847 -4.000268,3.540847 0,0 -0.463604,1.89452 1.405599,3.99976 l 1.892907,1.99987 h 5.701462 5.701464 l 1.89291,-1.99987 c 1.8692,-2.10524 1.4056,-3.99976 1.4056,-3.99976 0,0 0.0883,-3.540847 -4.00028,-3.540847 -4.088554,0 -4.999694,1.554429 -4.999694,1.554429 0,0 -0.91115,-1.554429 -4.9997,-1.554429 z m 0.746213,2.795667 c 1.37801,0 2.743504,0.524 2.743504,0.524 v 3.75017 h -2.979664 l -0.63821,-1.20303 c -0.629954,-0.70955 -0.473869,-1.87741 -0.473869,-1.87741 0,0 -0.02977,-1.19373 1.348239,-1.19373 z m 8.506981,0 c 1.37804,0 1.34824,1.7229 1.34824,1.7229 0,0 0.15613,0.63869 -0.47388,1.34824 l -0.6382,1.20303 h -2.979673 v -3.75017 c 0,0 1.365493,-0.524 2.743513,-0.524 z m -8.912124,8.22099 c -2.000009,0 -1.999362,2.01177 -1.999362,2.01177 l 0.01964,0.97668 h 5.637895 2.0004 5.637901 l 0.0191,-0.97668 c 0,0 10e-4,-2.01177 -1.99885,-2.01177 h -3.658171 -2.0004 z"
       sodipodi:nodetypes="ccccccccccccccscccccccscsscccccsscccccssccccccsccs"
       inkscape:export-filename="king.png"
       inkscape:export-xdpi="1000"
       inkscape:export-ydpi="1000" /><path
       id="path1-5"
       style="fill:none;fill-opacity:1;stroke:#000000;stroke-width:0.8;stroke-linecap:round;stroke-linejoin:round;stroke-miterlimit:8;stroke-dasharray:none;stroke-opacity:1"
       d="m 125.04043,94.39223 c -1.02428,-10e-7 -1.85463,0.830344 -1.85463,1.854627 0.001,0.7456 0.44923,1.417848 1.13671,1.706466 v 4.874457 l -2.00139,-2.21077 c 0.22994,-0.31529 0.35457,-0.69507 0.35615,-1.085294 0,-1.024287 -0.83035,-1.854633 -1.85464,-1.854626 -1.02429,-7e-6 -1.85464,0.830339 -1.85464,1.854626 0.003,0.980154 0.76728,1.789134 1.74575,1.846674 l 2.71137,5.7419 h 3.19046 1.8093 3.19046 l 2.71136,-5.7419 c 0.97846,-0.0575 1.74321,-0.86653 1.74572,-1.846674 0,-1.024283 -0.83035,-1.854627 -1.85463,-1.854626 -1.02428,4e-6 -1.85462,0.830347 -1.85462,1.854626 0.002,0.390224 0.12621,0.770004 0.35615,1.085294 l -2.00139,2.21077 v -4.874457 c 0.68748,-0.288618 1.13527,-0.960866 1.13671,-1.706466 0,-1.024283 -0.83035,-1.854628 -1.85463,-1.854627 -1.02428,-10e-7 -1.85463,0.830344 -1.85463,1.854627 0.002,0.565467 0.26115,1.099296 0.70484,1.44986 l -1.32976,3.756463 -1.33021,-3.756463 c 0.44369,-0.350564 0.70321,-0.884393 0.70484,-1.44986 0,-1.024291 -0.83036,-1.854639 -1.85465,-1.854627 z m -1.72656,14.14853 c -1.80895,0 -1.80836,1.81958 -1.80836,1.81958 l 0.0177,0.88338 h 5.09932 1.8093 5.0993 l 0.0173,-0.88338 c 0,0 9.1e-4,-1.81958 -1.80788,-1.81958 h -3.30871 -1.80929 z"
       sodipodi:nodetypes="scccccsccccccccscccccscccccssccccccsccs"
       inkscape:export-filename="queen.png"
       inkscape:export-xdpi="1000"
       inkscape:export-ydpi="1000" /></g></svg>
